<svg width="260" height="34" fill="none" xmlns="http://www.w3.org/2000/svg" viewBox="0 0 260 34"><path d="M129.411 33.174H0l.339-18.659c.559-.876 1.613-1.11 2.67-1.228 1.912-.205 3.499-1.593 4.05-3.533.385-1.375 1.32-2.301 2.328-2.301 1.146 0 2.03 1.141 2.37 3.05.6 3.36 1.81 5.364 3.244 5.364 1.415 0 2.696-1.922 3.257-4.903.773-4.086 2.19-6.725 3.615-6.725.634 0 1.538.54 2.203 3.11.128.483.243.958.348 1.41.586 2.433 1.011 4.191 2.399 4.191l.082-.005c.215-.009.416-.04.608-.073.206-.032.404-.064.586-.064a1.313 1.313 0 0 1 1.064.52c.343.471.75.718 1.165.718.443 0 .89-.274 1.26-.772.96-1.305 1.936-1.99 2.821-1.99.94 0 1.767.771 2.384 2.242 1.116 2.648 2.849 4.291 4.528 4.291 1.959 0 3.32-2.291 3.551-5.976.235-3.89 1.935-5.985 3.419-5.985 1.205 0 2.614 1.402 2.944 5.346.45 5.374 1.513 8.177 3.25 8.57.482.104.901.155 1.285.155 1.346 0 2.253-.667 2.938-2.164.928-2.032 2.43-3.296 3.922-3.296 1.246 0 2.363.862 3.147 2.428.894 1.799 2.145 2.83 3.428 2.83 1 0 1.906-.625 2.626-1.803 1.28-2.114 2.316-3.607 4.023-3.607.046 0 .091.005.142.005.06.005.119.005.178.005 1.397 0 2.329-.794 3.037-2.575.846-2.137 1.944-3.265 3.172-3.265.932 0 1.893.626 2.866 1.867.169.233.33.466.485.69.53.776.983 1.443 1.688 1.817.312.16.593.242.872.242.356 0 .641-.132.918-.26.24-.114.47-.22.716-.22h.064c.347.023.622.183.916.347.117.069.24.137.37.197.28.132.586.205.883.205.708 0 1.276-.383 1.562-1.054.324-.768.446-1.932.546-3.68.26-4.501 2.09-6.515 3.789-6.515 1.707 0 3.579 2.014 3.913 6.506.127 1.776.559 1.877 1.505 2.1.281.068.604.142.954.274 1.746.384 2.973 1.187 3.744 2.452.86 1.425 1.95 2.242 2.991 2.242 1.091 0 1.961-.873 2.385-2.388.171-.607.313-1.165.446-1.67.574-2.224.918-3.567 2.189-3.653.05-.005.101-.005.15-.005 1.018 0 1.357.735 2.02 2.196.092.201.188.42.299.648.465 1.014 1.208 1.598 2.039 1.598.543 0 1.082-.246 1.569-.707.576-.553 1.157-.836 1.718-.836.603 0 1.168.325 1.686.96.938 1.159 1.695 1.675 2.453 1.675.399 0 .703-.084.948-.213 1.131-.592 1.081-1.6 2.654-.913.593.258 1.06.605 1.863.605 1.772 0 2.35-1.5 2.533-2.793.419-2.927 1.685-4.817 3.228-4.817 1.53 0 2.845 1.732 3.516 4.467.552 2.254 1.551 3.23 2.916 3.23.521 0 1.081-.192 1.654-.57.901-.599 1.605-.877 2.221-.877.748 0 1.375.425 1.912 1.292 1.211 1.931 2.83 3.04 4.442 3.04 3.611 0 4.243-3.643 4.799-6.857.454-2.643.888-5.14 2.942-5.14 2.717 0 3.208 3.391 3.682 6.67.438 3.045.856 5.916 2.897 6.167.073.01.151.014.232.014 1.082 0 2.17-.835 2.898-2.232.185-.357.356-.708.513-1.041.745-1.561 1.333-2.794 2.895-2.83 1.115 0 2.018 1.269 2.756 3.884.584 2.064 1.736 3.25 3.165 3.25 1.141 0 2.347-.78 3.39-2.195 1.695-2.301 3.04-3.721 4.483-3.721.735 0 1.477.379 2.266 1.16.767.757 1.531 1.14 2.285 1.14.785 0 1.555-.424 2.287-1.264.919-1.055 1.845-1.566 2.827-1.566.945 0 1.936.466 3.037 1.424 1.008.808 1.942 1.214 2.782 1.214 3.018 0 4.409-5.222 5.045-9.61.428-2.935 1.908-3.981 3.15-3.981 1.246 0 2.365.968 2.715 2.36 1.057 4.155 2.836 6.008 5.762 6.008a8.45 8.45 0 0 0 1.802-.21c.967-.206 1.791-.306 2.521-.306 1.972 0 3.279.744 3.986 2.27 1.129 2.446 2.469 5.053 4.054 5.053.625 0 1.258-.43 1.881-1.273.445-.603.762-1.247 1.07-1.863.597-1.206 1.118-2.242 2.278-2.25.087.008.178.018.269.018.553 0 1.214-.229 1.234-1.33.105-5.044 2.283-6.834 4.119-6.834 3.83 0 3.727 6.168 3.69 8.492-.034 2.114.991 3.48 2.608 3.48.767 0 1.594-.334 2.327-.941.779-.648 1.574-.986 2.305-.986.671 0 1.264.292 1.674.83.259.338.438.758.535 1.238l-.344 18.974-129.412-.006ZM10.007 16.843c-.227-1.315-.822-1.986-1.772-1.986-.553 0-1.2.22-1.93.652-2.468 1.457-3.539 4.087-3.219 5.333.077.297.272.648.764.648.215 0 .467-.064.743-.196.788-.365 1.325-.534 1.81-.566.04 0 .082-.005.122-.005.452 0 .846.169 1.276.37.181.086.368.132.55.132.375 0 .725-.187 1.02-.534.671-.784.907-2.227.636-3.848Zm217.898-3.081c-.125-1.457-.701-2.137-1.815-2.137-.301 0-.654.05-1.072.155a9.56 9.56 0 0 0-.789.247l-.069.022c-.418.146-.643.21-1.068.21-.169 0-.374-.013-.648-.027a7.887 7.887 0 0 0-.552-.022c-1.393 0-2.354.387-2.778 1.118-.372.639-.297 1.557.194 2.383.633 1.077 2.087 2.228 4.27 2.228.182 0 .365-.005.552-.022 1.217-.11 2.221-.589 2.897-1.388a3.83 3.83 0 0 0 .878-2.767Z" fill="#202020"/></svg>